<svg width="25" height="25" viewBox="0 0 25 25" fill="none" xmlns="http://www.w3.org/2000/svg">
<path d="M24.4921 12.5004C24.4921 18.5612 20.0008 23.5717 14.1663 24.3848C13.6208 24.4605 13.0626 24.5 12.496 24.5C11.8421 24.5 11.1999 24.4479 10.5745 24.347C4.86266 23.4271 0.5 18.4729 0.5 12.5004C0.5 5.87294 5.87136 0.5 12.4969 0.5C19.1224 0.5 24.4938 5.87294 24.4938 12.5004H24.4921Z" fill="black"/>
<path d="M14.1662 10.1351V12.7493H17.3991L16.8872 16.2707H14.1662V24.384C13.6206 24.4596 13.0625 24.4992 12.4959 24.4992C11.842 24.4992 11.1997 24.447 10.5743 24.3461V16.2707H7.59277V12.7493H10.5743V9.55077C10.5743 7.5664 12.1824 5.95703 14.167 5.95703V5.95871C14.1729 5.95871 14.1779 5.95703 14.1838 5.95703H17.3999V9.00254H15.2985C14.6739 9.00254 14.167 9.50957 14.167 10.1343L14.1662 10.1351Z" fill="white"/>
</svg>
