<svg width="25" height="25" viewBox="0 0 25 25" fill="none" xmlns="http://www.w3.org/2000/svg">
<path d="M12.5174 0.5H12.4628C5.85242 0.5 0.493652 5.86035 0.493652 12.4727V12.5273C0.493652 19.1397 5.85242 24.5 12.4628 24.5H12.5174C19.1278 24.5 24.4866 19.1397 24.4866 12.5273V12.4727C24.4866 5.86035 19.1278 0.5 12.5174 0.5Z" fill="black"/>
<path d="M16.2018 5.38281H8.77771C6.72667 5.38281 5.05811 7.05187 5.05811 9.10351V15.8975C5.05811 17.9491 6.72667 19.6182 8.77771 19.6182H16.2018C18.2528 19.6182 19.9214 17.9491 19.9214 15.8975V9.10351C19.9214 7.05187 18.2528 5.38281 16.2018 5.38281ZM6.37027 9.10351C6.37027 7.77583 7.45042 6.69536 8.77771 6.69536H16.2018C17.5291 6.69536 18.6092 7.77583 18.6092 9.10351V15.8975C18.6092 17.2252 17.5291 18.3056 16.2018 18.3056H8.77771C7.45042 18.3056 6.37027 17.2252 6.37027 15.8975V9.10351Z" fill="white"/>
<path d="M12.4897 15.9608C14.3969 15.9608 15.9495 14.4086 15.9495 12.4999C15.9495 10.5912 14.3978 9.03906 12.4897 9.03906C10.5815 9.03906 9.02979 10.5912 9.02979 12.4999C9.02979 14.4086 10.5815 15.9608 12.4897 15.9608ZM12.4897 10.3524C13.674 10.3524 14.6374 11.316 14.6374 12.5008C14.6374 13.6855 13.674 14.6491 12.4897 14.6491C11.3053 14.6491 10.3419 13.6855 10.3419 12.5008C10.3419 11.316 11.3053 10.3524 12.4897 10.3524Z" fill="white"/>
<path d="M16.2696 9.5974C16.7832 9.5974 17.2018 9.1795 17.2018 8.66491C17.2018 8.15032 16.7841 7.73242 16.2696 7.73242C15.7552 7.73242 15.3374 8.15032 15.3374 8.66491C15.3374 9.1795 15.7552 9.5974 16.2696 9.5974Z" fill="white"/>
</svg>
