<svg width="50" height="50" viewBox="0 0 50 50" fill="none" xmlns="http://www.w3.org/2000/svg">
<path d="M24.9998 45.8327C36.5058 45.8327 45.8332 36.5053 45.8332 24.9993C45.8332 13.4934 36.5058 4.16602 24.9998 4.16602C13.4939 4.16602 4.1665 13.4934 4.1665 24.9993C4.1665 36.5053 13.4939 45.8327 24.9998 45.8327Z" stroke="#525252" stroke-width="1.5" stroke-linecap="round" stroke-linejoin="round"/>
<path d="M25 37.5C31.9036 37.5 37.5 31.9036 37.5 25C37.5 18.0964 31.9036 12.5 25 12.5C18.0964 12.5 12.5 18.0964 12.5 25C12.5 31.9036 18.0964 37.5 25 37.5Z" stroke="#525252" stroke-width="1.5" stroke-linecap="round" stroke-linejoin="round"/>
<path d="M25.0002 29.1673C27.3013 29.1673 29.1668 27.3018 29.1668 25.0007C29.1668 22.6995 27.3013 20.834 25.0002 20.834C22.699 20.834 20.8335 22.6995 20.8335 25.0007C20.8335 27.3018 22.699 29.1673 25.0002 29.1673Z" stroke="#525252" stroke-width="1.5" stroke-linecap="round" stroke-linejoin="round"/>
</svg>
