<svg width="41" height="40" viewBox="0 0 41 40" fill="none" xmlns="http://www.w3.org/2000/svg">
<rect x="0.5" width="40" height="40" rx="20" fill="white"/>
<path d="M30.3881 24.9201V27.9201C30.3892 28.1986 30.3322 28.4743 30.2206 28.7294C30.1091 28.9846 29.9454 29.2137 29.7402 29.402C29.535 29.5902 29.2927 29.7336 29.0289 29.8228C28.765 29.912 28.4855 29.9452 28.2081 29.9201C25.131 29.5857 22.1751 28.5342 19.5781 26.8501C17.1619 25.3148 15.1135 23.2663 13.5781 20.8501C11.8881 18.2413 10.8364 15.2711 10.5081 12.1801C10.4831 11.9036 10.516 11.6249 10.6046 11.3617C10.6932 11.0986 10.8357 10.8568 11.0229 10.6517C11.2101 10.4466 11.4379 10.2828 11.6919 10.1706C11.9459 10.0584 12.2205 10.0004 12.4981 10.0001H15.4981C15.9834 9.99532 16.4539 10.1672 16.8219 10.4836C17.1898 10.8001 17.4302 11.2395 17.4981 11.7201C17.6247 12.6802 17.8596 13.6228 18.1981 14.5301C18.3327 14.888 18.3618 15.277 18.282 15.651C18.2023 16.0249 18.017 16.3682 17.7481 16.6401L16.4781 17.9101C17.9017 20.4136 19.9746 22.4865 22.4781 23.9101L23.7481 22.6401C24.02 22.3712 24.3633 22.1859 24.7372 22.1062C25.1112 22.0264 25.5002 22.0556 25.8581 22.1901C26.7654 22.5286 27.7081 22.7635 28.6681 22.8901C29.1539 22.9586 29.5975 23.2033 29.9146 23.5776C30.2318 23.9519 30.4003 24.4297 30.3881 24.9201Z" stroke="#193F68" stroke-width="2" stroke-linecap="round" stroke-linejoin="round"/>
</svg>
