<svg width="25" height="25" viewBox="0 0 25 25" fill="none" xmlns="http://www.w3.org/2000/svg">
<path d="M24.4789 12.5004C24.4789 18.5612 19.9876 23.5717 14.1531 24.3848C13.6076 24.4605 13.0494 24.5 12.4829 24.5C11.8289 24.5 11.1867 24.4479 10.5613 24.347C4.84947 23.4271 0.486816 18.4729 0.486816 12.5004C0.486816 5.87294 5.85818 0.5 12.4837 0.5C19.1092 0.5 24.4806 5.87294 24.4806 12.5004H24.4789Z" fill="black"/>
<path d="M5.35136 5.79297L10.8841 13.1923L5.31689 19.2085H6.57022L11.4448 13.9415L15.3829 19.2085H19.6473L13.8035 11.3929L18.9857 5.79297H17.7324L13.2436 10.6438L9.61651 5.79297H5.35219H5.35136ZM7.19393 6.71621H9.1525L17.803 18.2853H15.8444L7.19393 6.71621Z" fill="white"/>
</svg>
