<svg width="25" height="25" viewBox="0 0 25 25" fill="none" xmlns="http://www.w3.org/2000/svg">
<path d="M24.4734 12.5C24.4734 5.87258 19.1024 0.5 12.4769 0.5C5.85148 0.5 0.480469 5.87258 0.480469 12.5C0.480469 19.1274 5.85148 24.5 12.4769 24.5C19.1024 24.5 24.4734 19.1274 24.4734 12.5Z" fill="black"/>
<path d="M20.0312 10.0124C19.9368 9.1009 19.7336 8.09324 18.9859 7.56369C18.4068 7.15304 17.6456 7.13786 16.9349 7.1387C15.4327 7.1387 13.9297 7.14123 12.4275 7.14208C10.9827 7.14376 9.53778 7.14461 8.09291 7.14629C7.48933 7.14629 6.90262 7.09991 6.34203 7.36131C5.86069 7.58561 5.48388 8.01229 5.25712 8.48703C4.94269 9.14728 4.87694 9.89522 4.839 10.6255C4.76903 11.9552 4.77662 13.2884 4.86008 14.6173C4.92161 15.587 5.07756 16.6588 5.82697 17.2769C6.49124 17.8241 7.42864 17.8511 8.29016 17.8519C11.0248 17.8545 13.7603 17.857 16.4958 17.8587C16.8464 17.8595 17.2123 17.8528 17.5697 17.814C18.2728 17.7381 18.9429 17.5366 19.3948 17.0154C19.8508 16.4901 19.968 15.759 20.0371 15.0667C20.2057 13.387 20.204 11.6913 20.0312 10.0124ZM10.8461 14.8534V10.144L14.9228 12.4983L10.8461 14.8534Z" fill="white"/>
</svg>
